<?xml version="1.0" encoding="iso-8859-1"?>
<!-- Generator: Adobe Illustrator 19.0.0, SVG Export Plug-In . SVG Version: 6.00 Build 0)  -->
<svg version="1.1" id="Capa_1" xmlns="http://www.w3.org/2000/svg" xmlns:xlink="http://www.w3.org/1999/xlink" x="0px" y="0px"
	 viewBox="0 0 512 512" style="enable-background:new 0 0 512 512;" xml:space="preserve">
<g>
	<g>
		<path d="M104.342,158.155l-19.52-28.529c-2.343-3.422-7.016-4.299-10.437-1.956c-3.422,2.342-4.298,7.014-1.957,10.436
			l19.52,28.529c1.455,2.126,3.808,3.268,6.204,3.268c1.46,0,2.937-0.425,4.234-1.312
			C105.807,166.25,106.683,161.578,104.342,158.155z"/>
	</g>
</g>
<g>
	<g>
		<path d="M437.39,127.67c-3.424-2.341-8.097-1.466-10.437,1.956l-19.52,28.529c-2.341,3.423-1.466,8.095,1.957,10.436
			c1.296,0.887,2.773,1.312,4.234,1.312c2.396,0,4.749-1.143,6.204-3.268l19.52-28.529
			C441.689,134.684,440.813,130.012,437.39,127.67z"/>
	</g>
</g>
<g>
	<g>
		<path d="M255.887,287.517c-11.832,0-21.458,9.626-21.458,21.458c0,4.802,1.635,9.458,4.568,13.208v2.495h0
			c0,9.313,7.576,16.89,16.89,16.89s16.89-7.576,16.89-16.89v-2.495c2.933-3.751,4.568-8.406,4.568-13.208
			C277.345,297.143,267.719,287.517,255.887,287.517z M260.212,313.729c-1.562,1.422-2.451,3.438-2.451,5.549v5.401
			c0,1.016-0.858,1.874-1.874,1.874c-1.016,0-1.874-0.858-1.874-1.874v-5.401c0-2.112-0.89-4.126-2.451-5.549
			c-1.365-1.244-2.117-2.932-2.117-4.753c0-3.553,2.89-6.442,6.442-6.442c3.552,0,6.442,2.89,6.442,6.442
			C262.329,310.797,261.577,312.485,260.212,313.729z"/>
	</g>
</g>
<g>
	<g>
		<path d="M511.775,271.021v-42.717c0-4.146-3.362-7.508-7.508-7.508c-4.146,0-7.508,3.362-7.508,7.508v37.005h-39.447
			c-0.793-5.077-0.303-11.092,0.208-17.366c1.026-12.585,2.189-26.851-7.649-37.429c-9.337-10.04-25.494-13.252-41.119-16.358
			c-10.417-2.071-21.19-4.213-28.18-8.195c-6.672-3.8-12.147-10.62-17.943-17.84c-8.356-10.409-17.827-22.207-32.883-26.033
			c-14.044-3.571-29.169,1.13-43.794,5.675c-10.239,3.181-20.825,6.471-30.063,6.471s-19.824-3.289-30.063-6.471
			c-14.627-4.545-29.751-9.245-43.795-5.675c-15.057,3.826-24.527,15.624-32.883,26.033c-5.796,7.22-11.271,14.04-17.943,17.84
			c-6.991,3.981-17.763,6.124-28.18,8.195c-15.625,3.106-31.782,6.319-41.119,16.358c-9.839,10.579-8.675,24.844-7.649,37.43
			c0.512,6.274,1,12.287,0.208,17.366h-5.23H15.016v-82.261c0-39.107,31.816-70.924,70.924-70.924h69.798l4.529,11.07
			c1.189,2.907,3.993,4.667,6.951,4.667c0.946,0,1.909-0.18,2.84-0.562c3.837-1.57,5.676-5.953,4.106-9.791l-2.202-5.384h76.576
			c0.708,3.412,3.729,5.975,7.351,5.975s6.642-2.564,7.351-5.975h76.576l-2.202,5.384c-1.57,3.838,0.268,8.222,4.106,9.791
			c0.931,0.38,1.893,0.562,2.84,0.562c2.958,0,5.762-1.76,6.951-4.667l4.529-11.07h69.798c39.108,0,70.924,31.816,70.924,70.924
			c0,4.146,3.362,7.508,7.508,7.508s7.508-3.362,7.508-7.508c0-47.387-38.552-85.94-85.94-85.94h-63.655l16.356-39.981
			c1.57-3.838-0.268-8.222-4.106-9.792c-3.838-1.57-8.222,0.269-9.791,4.106L345.959,97.11h-82.56V64.045
			c0-4.146-3.362-7.508-7.508-7.508s-7.508,3.362-7.508,7.508v33.064h-82.56L147.14,51.442c-1.569-3.837-5.95-5.676-9.791-4.106
			c-3.837,1.57-5.676,5.953-4.106,9.791l16.356,39.981H85.94C38.552,97.109,0,135.661,0,183.049v89.769v179.894
			c0,6.9,5.613,12.513,12.513,12.513h70.189h346.596h69.963h0.225c6.9,0,12.513-5.613,12.513-12.513V272.818
			C512,272.197,511.916,271.597,511.775,271.021z M455.257,280.326v26.71H314.564v-26.513L455.257,280.326z M72.901,220.74
			c6.03-6.485,19.767-9.216,33.051-11.857c11.591-2.304,23.577-4.688,32.684-9.874c9.159-5.217,15.8-13.488,22.222-21.488
			c7.55-9.406,14.683-18.291,24.872-20.879c2.192-0.558,4.508-0.803,6.929-0.803c8.552,0,18.41,3.063,28.711,6.264
			c11.308,3.514,23.003,7.148,34.519,7.148s23.211-3.634,34.519-7.148c13.217-4.107,25.701-7.988,35.64-5.461
			c10.189,2.589,17.322,11.473,24.873,20.879c6.422,8,13.062,16.271,22.222,21.488c9.107,5.187,21.091,7.569,32.683,9.874
			c13.284,2.641,27.02,5.373,33.051,11.857c5.33,5.731,4.565,15.116,3.679,25.983c-0.503,6.17-1.013,12.471-0.377,18.586H307.056
			H204.719H69.598c0.636-6.116,0.126-12.415-0.377-18.586C68.336,235.856,67.571,226.471,72.901,220.74z M299.548,280.522v34.021
			v8.339c0,14.269-11.609,25.879-25.879,25.879h-35.563c-14.269,0-25.879-11.609-25.879-25.879v-8.339v-34.021H299.548z
			 M15.016,280.326h26.71v34.218v72.712c-10.592-5.122-20.467-7.73-26.71-9V280.326z M15.016,450.21v-0.001v-56.583
			c6.229,1.479,15.245,4.27,24.455,9.36c19.277,10.655,30.919,26.516,34.692,47.224H15.016z M422.629,450.209H89.372
			c-3.44-22.443-14.578-40.847-32.63-53.998v-74.16h51.351c4.146,0,7.508-3.362,7.508-7.508c0-4.146-3.362-7.508-7.508-7.508H56.742
			v-26.71l140.469,0.196v26.513h-42.568c-4.146,0-7.508,3.362-7.508,7.508s3.362,7.508,7.508,7.508h42.568v0.831
			c0,22.549,18.346,40.895,40.895,40.895h35.563c22.549,0,40.895-18.346,40.895-40.895v-0.831h140.694v74.16
			C437.205,409.362,426.067,427.766,422.629,450.209z M496.759,450.209h-58.921c3.746-20.55,15.245-36.333,34.269-46.988
			c9.188-5.146,18.308-7.999,24.652-9.524V450.209z M496.759,378.301c-6.254,1.285-16.018,3.891-26.484,8.954v-72.712v-34.218
			h26.484V378.301z"/>
	</g>
</g>
<g>
</g>
<g>
</g>
<g>
</g>
<g>
</g>
<g>
</g>
<g>
</g>
<g>
</g>
<g>
</g>
<g>
</g>
<g>
</g>
<g>
</g>
<g>
</g>
<g>
</g>
<g>
</g>
<g>
</g>
</svg>
